<svg width="49" height="49" viewBox="0 0 49 49" fill="none" xmlns="http://www.w3.org/2000/svg">
<g clip-path="url(#clip0_148_133)">
<path d="M24.9182 10.6074C32.374 10.6074 38.4182 16.6516 38.4182 24.1074C38.4182 31.5632 32.374 37.6074 24.9182 37.6074C17.4624 37.6074 11.4182 31.5632 11.4182 24.1074C11.4182 16.6516 17.4624 10.6074 24.9182 10.6074Z" fill="url(#paint0_radial_148_133)"/>
<path d="M24.9182 39.8574C26.1609 39.8574 27.1682 40.8647 27.1682 42.1074V44.3574C27.1682 45.6001 26.1609 46.6074 24.9182 46.6074C23.6755 46.6074 22.6682 45.6001 22.6682 44.3574V42.1074C22.6682 40.8647 23.6755 39.8574 24.9182 39.8574ZM39.2372 35.2445L40.8282 36.8354C41.7068 37.7141 41.7068 39.1385 40.8282 40.0174C39.9496 40.896 38.5249 40.896 37.6462 40.0174L36.0553 38.4264C35.1766 37.5476 35.1766 36.1231 36.0553 35.2445C36.9339 34.3656 38.3586 34.3656 39.2372 35.2445ZM10.5992 35.2445C11.4779 34.3656 12.9025 34.3656 13.7812 35.2445C14.5922 36.0555 14.6546 37.3318 13.9683 38.2145L13.7812 38.4264L12.1902 40.0174C11.3115 40.896 9.88686 40.896 9.00819 40.0174C8.19709 39.2064 8.1347 37.93 8.82102 37.0474L9.00819 36.8354L10.5992 35.2445ZM6.91821 21.8574C8.16084 21.8574 9.16821 22.8647 9.16821 24.1074C9.16821 25.2613 8.29961 26.2123 7.18061 26.3423L6.91821 26.3574H4.66821C3.42558 26.3574 2.41821 25.3501 2.41821 24.1074C2.41821 22.9535 3.28681 22.0025 4.40582 21.8726L4.66821 21.8574H6.91821ZM45.1682 21.8574C46.4109 21.8574 47.4182 22.8647 47.4182 24.1074C47.4182 25.3501 46.4109 26.3574 45.1682 26.3574H42.9182C41.6755 26.3574 40.6682 25.3501 40.6682 24.1074C40.6682 22.8647 41.6755 21.8574 42.9182 21.8574H45.1682ZM9.00826 8.1974C9.81934 7.38632 11.0956 7.32393 11.9783 8.01023L12.1902 8.1974L13.7812 9.7884C14.6599 10.6671 14.6599 12.0917 13.7812 12.9704C12.9701 13.7815 11.6939 13.8438 10.8112 13.1575L10.5992 12.9704L9.00826 11.3794C8.12957 10.5007 8.12957 9.07607 9.00826 8.1974ZM40.8282 8.19745C41.7068 9.07612 41.7068 10.5007 40.8282 11.3794L39.2372 12.9704C38.3584 13.8491 36.9339 13.8491 36.0553 12.9704C35.1764 12.0917 35.1764 10.6671 36.0553 9.78843L37.6462 8.19745C38.5249 7.31875 39.9493 7.31875 40.8282 8.19745ZM24.9182 1.60742C26.1609 1.60742 27.1682 2.61479 27.1682 3.85742V6.10742C27.1682 7.35005 26.1609 8.35742 24.9182 8.35742C23.6755 8.35742 22.6682 7.35005 22.6682 6.10742V3.85742C22.6682 2.61479 23.6755 1.60742 24.9182 1.60742Z" fill="url(#paint1_linear_148_133)"/>
</g>
<defs>
<radialGradient id="paint0_radial_148_133" cx="0" cy="0" r="1" gradientUnits="userSpaceOnUse" gradientTransform="translate(15.5432 13.9824) rotate(43.0203) scale(31.2859)">
<stop offset="0.193671" stop-color="#FFE475"/>
<stop offset="0.529275" stop-color="#FFB029"/>
<stop offset="0.780467" stop-color="#FF9100"/>
</radialGradient>
<linearGradient id="paint1_linear_148_133" x1="2.13696" y1="1.32617" x2="47.6995" y2="46.8887" gradientUnits="userSpaceOnUse">
<stop offset="0.166667" stop-color="#FFE475"/>
<stop offset="0.798611" stop-color="#FFBF29"/>
</linearGradient>
<clipPath id="clip0_148_133">
<rect width="48" height="48" fill="white" transform="translate(0.918213 0.107422)"/>
</clipPath>
</defs>
</svg>
